<svg version="1.1" id="圖層_1" xmlns="http://www.w3.org/2000/svg" x="0" y="0" viewBox="0 0 212 40" xml:space="preserve"><style>.st4{fill:#0079ff}.st5{fill:#fff}.st6{fill:none}</style><g id="logo" transform="translate(-28 -9)"><path d="M86.6 24.5l-3.3.7c-.2-1.5-1.6-2.5-3.2-2.5s-2.6.9-2.6 2c0 .8.4 1.4 1.6 1.6l3.5.7c2.6.6 4.2 2.1 4.2 4.6 0 3.1-2.6 5.1-6.4 5.1-3.4 0-6.3-1.6-6.7-4.8l3.4-.7c.4 1.8 1.8 2.6 3.6 2.6 1.9 0 2.9-.9 2.9-2 0-.9-.4-1.5-1.9-1.8l-3.4-.6c-1.9-.4-4.2-1.5-4.2-4.6 0-2.9 2.4-4.9 6.1-4.9 3.3-.1 5.7 1.7 6.4 4.6zm14.4 6.6h-9.1c.3 1.7 1.5 2.8 3 2.8.9 0 2.1-.1 3-1.6l2.8.6c-1.1 2.5-3.2 3.7-5.8 3.7-3.4 0-6.1-2.6-6.1-6.3 0-3.8 2.8-6.4 6.2-6.4 3.2 0 6 2.5 6.1 6.1v1.1zm-9-2.2h5.8c-.4-1.5-1.6-2.2-2.8-2.2-1.3 0-2.7.7-3 2.2zm19.9 2.5l2.9.7c-.7 2.7-3.1 4.5-6 4.5-3.5 0-6.4-2.6-6.4-6.3 0-3.8 2.9-6.4 6.4-6.4 2.8 0 5.2 1.7 6 4.4l-3 .9c-.4-1.7-1.6-2.4-3-2.4-2 0-3.3 1.4-3.3 3.5s1.3 3.4 3.3 3.4c1.4 0 2.5-.6 3.1-2.3zm16.8 4.9h-3.2v-1.1c-.9.9-2.2 1.4-3.8 1.4-2.9 0-4.8-2.1-4.8-5v-7.3h3.2v6.6c0 1.7 1 2.8 2.4 2.8 1.8 0 3-1.2 3-4.1v-5.3h3.2v12zm13.6 0l-5.3-5.9h-1.7v5.9H132V20.2h7.7c3.5 0 5.8 2 5.8 5.1 0 2.7-1.8 4.6-4.6 5l5.4 6h-4zm-2.6-8.9c1.5 0 2.5-.9 2.5-2.1 0-1.3-1-2.1-2.5-2.1h-4.4v4.3h4.4zm19.3 3.7h-9.1c.3 1.7 1.5 2.8 3 2.8.9 0 2.1-.1 3-1.6l2.8.6c-1.1 2.5-3.2 3.7-5.8 3.7-3.4 0-6.1-2.6-6.1-6.3 0-3.8 2.8-6.4 6.2-6.4 3.2 0 6 2.5 6.1 6.1v1.1zm-9-2.2h5.8c-.4-1.5-1.6-2.2-2.8-2.2-1.3 0-2.6.7-3 2.2zm24.4 1.4c0 3.8-2.8 6.3-5.9 6.3-1.6 0-3-.5-4-1.3v5h-3.2v-16h3.2v1c1-.8 2.3-1.3 4-1.3 3.1-.1 5.9 2.5 5.9 6.3zm-3.1 0c0-2.2-1.4-3.6-3.4-3.6-1.7 0-3.4 1.4-3.4 3.6s1.7 3.6 3.4 3.6c2 0 3.4-1.4 3.4-3.6zm17.5 0c0 3.8-3 6.3-6.5 6.3-3.6 0-6.5-2.5-6.5-6.3s3-6.3 6.5-6.3c3.6 0 6.5 2.5 6.5 6.3zm-3 0c0-2.2-1.7-3.6-3.4-3.6s-3.5 1.3-3.5 3.6c0 2.2 1.7 3.6 3.5 3.6 1.6 0 3.4-1.4 3.4-3.6zm13.7-6.1l-.2 3h-.7c-2.9 0-4.3 1.8-4.3 5.1v3.9h-3.2v-12h3.2v2.2c1-1.4 2.4-2.4 4.3-2.4.4.1.7.1.9.2zm11 11.5c-1.2.7-2.1.9-3.1.9-2.8 0-4.7-1.5-4.7-4.8v-5h-2.6v-2.6h2.6v-3.6h3.2v3.6h3.9v2.6h-3.9v4.7c0 1.4.7 2.1 1.8 2.1.6 0 1.4-.2 2-.6l.8 2.7zm12.8-4.6h-9.1c.3 1.7 1.5 2.8 3 2.8.9 0 2.1-.1 3-1.6l2.8.6c-1.1 2.5-3.2 3.7-5.8 3.7-3.4 0-6.1-2.6-6.1-6.3 0-3.8 2.8-6.4 6.2-6.4 3.2 0 6 2.5 6.1 6.1v1.1zm-9.1-2.2h5.8c-.4-1.5-1.6-2.2-2.8-2.2-1.2 0-2.6.7-3 2.2zm19.8-4.7l-.2 3h-.7c-2.9 0-4.3 1.8-4.3 5.1v3.9h-3.2v-12h3.2v2.2c1-1.4 2.4-2.4 4.3-2.4.3.1.6.1.9.2z" fill="#575757"/><g id="Group_5504" transform="translate(32.523 10.705)"><g id="Group_5466" transform="translate(0 .006)"><path id="Path_4754" d="M31.9 5.1v1.7c0 .7-.1 1.6-.2 2.7 0 .4-.1.7-.1 1.1-.1.7-.1 1.5-.2 2.3v1c0 .3-.1.7-.1 1 0 .2 0 .4-.1.5 0 .3-.1.7-.1 1 0 .3-.1.7-.1 1 0 .2-.1.4-.1.5s-.1.3-.1.5v.2c0 .2-.1.5-.1.7-.1.3-.1.7-.2 1-.1.4-.2.8-.2 1.2 0 .1 0 .2-.1.3l-.3 1.5v.2c0 .1-.1.2-.1.3-.1.2-.1.4-.2.6 0 .1-.1.2-.1.4-.1.3-.2.5-.3.8 0 .1-.1.3-.1.4-.1.2-.2.5-.3.7 0 .1-.1.2-.1.3-.1.3-.3.6-.5.9-.1.1-.1.2-.2.3s-.1.2-.2.2L15.9 23V0l.2.2.1.1.3.3c.1.1.3.3.5.4.1.1.2.1.3.2.3.3.7.6 1.1.8.1 0 .2.1.2.1l.3.2c.1.1.3.2.4.2.3.2.6.3.9.5l.6.3.6.3c.2.1.4.2.7.2s.5.2.7.2c.2.1.4.1.7.2.2 0 .4.1.6.1.2 0 .3.1.5.1.5.1 1 .2 1.6.3s1.1.3 1.6.3c.2 0 .5 0 .7.1h2c.5.1 1 .1 1.4 0z" fill="#009aff"/><path id="Path_4755" d="M15.9 0v23L4.1 28.6C.5 23.4 0 5.1 0 5.1 11 5.6 15.7.3 15.9 0z" fill="#33c1ff"/><path id="Path_4756" class="st4" d="M27.8 28.6c-.1.2-.2.3-.3.4-3.1 3.3-7.1 5.8-11.5 7-4.4-1.2-8.4-3.6-11.5-7-.1-.1-.2-.3-.3-.4L15.9 23l11.9 5.6z"/></g><g id="Group_5467" transform="translate(2.358 12.432)"><path id="Path_4757" class="st5" d="M27.8 9.2c0 .1 0 .2-.1.3l-.3 1.5v.2c0 .1-.1.2-.1.3l-1.1.9c-.2.1-.4.2-.6.2-.2 0-.4-.1-.5-.3L18.5 2l-4.9 7.6-.9 1.4-2.8 4.4c-.1.2-.3.3-.5.3s-.4-.1-.6-.2l-1.7-1.8-3.6-3.9-3 3.8c-.2-.5-.3-1-.5-1.6l2.9-3.7c.2-.3.7-.4 1-.1 0 0 .1 0 .1.1L8.4 13l.8.8 1.1-1.7L13.6 7 17.9.3c.2-.3.6-.4 1-.2.1.1.2.1.2.2l6.8 10.6 1.9-1.7z"/></g><path id="Path_4758" class="st6" d="M31.9 5.2v1.7c0 .7-.1 1.6-.2 2.7 0 .4-.1.7-.1 1.1-.1.7-.1 1.5-.2 2.3v1c0 .3-.1.7-.1 1 0 .2 0 .4-.1.5 0 .3-.1.7-.1 1 0 .3-.1.7-.1 1 0 .2-.1.4-.1.5s-.1.3-.1.5v.2c0 .2-.1.5-.1.7-.1.3-.1.7-.2 1-.1.4-.2.8-.2 1.2 0 .1 0 .2-.1.3l-.3 1.5v.2c0 .1-.1.2-.1.3-.1.2-.1.4-.2.6 0 .1-.1.2-.1.4-.1.3-.2.5-.3.8 0 .1-.1.3-.1.4-.1.3-.2.5-.3.7 0 .1-.1.2-.1.3-.1.3-.3.6-.5.9-.1.1-.1.2-.2.3s-.1.2-.2.2c0 0 0 .1-.1.1 0 0 0 .1-.1.1-.1.1-.1.2-.2.2-.1.2-.3.3-.4.4l-.9.9c-.3.3-.6.6-.9.8-.3.3-.6.5-1 .7-.2.1-.3.2-.5.3-.3.2-.6.4-1 .6-.2.1-.3.2-.5.3-.5.3-.9.5-1.4.8-.2.1-.3.2-.4.2-.4.2-.9.4-1.3.6 0 .5-.1.5-.2.5-.3.1-.6.3-.9.4-.2.1-.4.2-.6.2-.1 0-.3.1-.4.1-.1 0-.3.1-.4.1h-.1c-.1 0-.2.1-.3.1-.1.1-.2.1-.2.1s-.4-.1-1.1-.3l-.9-.3c-1.6-.6-3.2-1.4-4.7-2.3-1.8-1.1-3.4-2.4-4.7-4-.4-.5-.7-1-1-1.6 0 0-.1-.1-.1-.2-.1-.2-.2-.3-.2-.5 0 0 0-.1-.1-.1 0-.1-.1-.2-.1-.2-.1-.1-.1-.3-.2-.4-.2-.5-.4-1.1-.5-1.6 0-.1-.1-.2-.1-.4 0-.1-.1-.3-.1-.4 0-.1 0-.2-.1-.3v-.2c-.1-.3-.1-.6-.2-.9 0-.2-.1-.3-.1-.5s-.1-.3-.1-.5c-.1-.6-.2-1.3-.3-2l-.3-1.8c-.1-.1-.1-.3-.2-.5-.1-.7-.2-1.4-.2-2 0-.4-.1-.8-.1-1.2v-.7c-.1-.8-.1-1.6-.2-2.3 0-.2 0-.5-.1-.7C.2 8.7.1 7.7.1 6.9V5.2h3.4c.4 0 .8-.1 1.1-.1.2 0 .4 0 .5-.1s.3 0 .5-.1c.1 0 .2 0 .3-.1H6c.2 0 .3-.1.5-.1.3 0 .5-.1.8-.2.1 0 .2-.1.4-.1H8c.4-.1.8-.2 1.1-.3.3-.1.6-.2.9-.4.2-.1.3-.1.5-.2s.4-.2.6-.2c.4-.2.7-.3 1-.5.2-.1.3-.2.5-.2s.3-.2.4-.2.3-.2.4-.2c.1-.1.2-.1.3-.2.5-.3.9-.6 1.3-1 .1-.1.1-.1.2-.1.1-.1.3-.2.4-.3.1 0 .1-.1.1-.1l.3-.3.2.2.1.1.3.3c.1.1.2.1.4.2.1.1.2.1.3.2.4.3.8.6 1.2.8.1 0 .2.1.2.1l.3.2c.1.1.3.2.4.2.3.2.6.3.9.5l.6.3.6.3c.2.1.4.2.7.2s.5.2.7.2c.2.1.4.1.7.2.2 0 .4.1.6.1.2 0 .3.1.5.1.5.1 1 .2 1.6.3s1.1.2 1.7.2c.2 0 .5 0 .7.1h2c.3.2.7.2 1.2.2z"/><path id="Path_4759" class="st5" d="M28.4 19.2l-2-1.5.6-.7-.5-.4c1.8-3.2.6-7.3-2.6-9.1-3.2-1.8-7.3-.6-9.1 2.6-.7 1.3-1 2.7-.8 4.1.5 3.3 3.3 5.8 6.6 5.8 1.5 0 2.9-.5 4.1-1.4l.6.5.6-.7 2 1.5c.2.1.5.1.6-.1.1-.2.1-.5-.1-.6z"/><path id="Path_4760" class="st4" d="M26.7 12.5c-.4-3-3-5.3-6-5.3-3.4 0-6.1 2.7-6.1 6.1 0 .3 0 .6.1.8.6 3.3 3.7 5.6 7 5 3.1-.4 5.4-3.3 5-6.6zm-5.3 6.4c-.3 0-.5.1-.8.1-.7 0-1.3-.1-2-.4l2.2-3.4 2.1 3.2c-.5.2-1 .4-1.5.5zm3.4-1.8l-3-4.6c-.2-.3-.6-.5-.9-.5-.4 0-.7.2-.9.5l-3.1 4.8c-2.2-2.1-2.3-5.6-.1-7.8.9-.9 2-1.5 3.2-1.6.3 0 .5-.1.8-.1 3.1 0 5.6 2.5 5.5 5.6-.1 1.4-.6 2.7-1.5 3.7z"/></g><path id="Rectangle_3980" class="st6" d="M28 9h212v40H28z"/></g></svg>