<svg xmlns="http://www.w3.org/2000/svg" width="15" height="16.958"><g data-name="Group 5504"><g data-name="Group 5466"><path data-name="Path 4754" d="M14.999 2.422s-.005.209-.022.575c0 .071-.008.151-.01.235-.016.339-.04.767-.071 1.259-.01.169-.024.341-.037.524a94.366 94.366 0 01-.133 1.522l-.05.47c-.01.085-.018.169-.029.254l-.056.466-.061.47c-.01.085-.024.167-.034.252s-.024.161-.037.243c0 .029-.008.061-.014.094-.018.116-.034.235-.056.352-.026.153-.05.307-.077.461q-.055.3-.111.587l-.032.156c-.053.241-.106.479-.161.709-.008.029-.016.058-.021.088-.011.047-.024.09-.034.135l-.08.3a3.023 3.023 0 01-.05.167c-.04.13-.08.254-.119.376l-.064.18a9.254 9.254 0 01-.132.339c-.021.053-.047.106-.069.159a4 4 0 01-.22.431c-.024.042-.05.088-.077.127l-.074.114-5.56-2.635V.005L7.513 0c.01.014.04.047.094.1l.053.053c.04.04.088.088.141.138a3.846 3.846 0 00.32.266 6.276 6.276 0 00.565.4c.037.024.071.047.111.069l.119.072c.064.037.132.077.2.114a8.424 8.424 0 00.725.352c.095.039.193.085.3.122s.207.08.315.116.22.077.334.112.206.064.315.094c.084.024.172.047.262.066.074.022.148.04.223.056a12.112 12.112 0 001.524.241c.108.011.223.019.336.027.072.008.141.01.217.013.1.008.2.01.3.013.145.006.3.008.447.008.186.003.386-.002.585-.01z" fill="#009aff"/><path data-name="Path 4755" d="M7.498.004v10.832l-5.557 2.63C.229 11.019.003 2.422.003 2.422 5.195 2.619 7.38.153 7.498.004z" fill="#33c1ff"/><path data-name="Path 4756" d="M13.066 13.466a1.606 1.606 0 01-.149.2 11.543 11.543 0 01-5.413 3.28 11.517 11.517 0 01-5.411-3.279 2.283 2.283 0 01-.154-.2l5.557-2.635z" fill="#0079ff"/></g><g data-name="Group 5467"><path data-name="Path 4757" d="M14.201 10.186l-.032.156c-.053.241-.106.479-.161.709-.008.029-.016.058-.021.088-.011.047-.024.09-.034.135l-.5.437a.33.33 0 01-.262.08.346.346 0 01-.235-.148l-3.142-4.86-2.312 3.583-.429.667-.008.008-1.321 2.054a.343.343 0 01-.249.151.336.336 0 01-.272-.106l-.789-.855-1.675-1.816-1.4 1.794a10.164 10.164 0 01-.243-.765l1.361-1.744a.332.332 0 01.466-.057.312.312 0 01.039.036l2.078 2.252.358.389.518-.8.005-.006L7.5 9.149l2.03-3.152a.329.329 0 01.556 0l3.216 4.968z" fill="#fff"/></g><path data-name="Path 4758" d="M15 2.421s-.005.209-.022.575c0 .071-.008.151-.01.235-.016.339-.04.767-.071 1.259-.014.167-.024.341-.037.524a92.434 92.434 0 01-.133 1.522c-.016.153-.032.312-.05.47-.01.085-.018.169-.029.254l-.056.466-.061.47c-.01.085-.024.167-.034.252s-.024.161-.037.243c0 .029-.008.061-.014.094-.018.116-.034.235-.056.352-.026.153-.05.307-.077.461q-.055.3-.111.587l-.032.156c-.053.241-.106.479-.161.709-.008.029-.016.058-.021.088-.014.047-.024.094-.037.138l-.08.3a3.023 3.023 0 01-.05.167c-.04.13-.08.254-.119.376l-.064.18c-.042.119-.088.231-.132.339-.021.053-.047.106-.069.159a4 4 0 01-.22.431c-.024.042-.05.088-.077.127l-.074.114a.2.2 0 01-.037.053.384.384 0 01-.029.04 1.129 1.129 0 01-.082.1.082.082 0 00-.013.016c-.064.071-.125.141-.188.209-.141.151-.286.3-.434.434s-.294.264-.442.389c-.151.121-.3.241-.45.352-.077.056-.151.109-.228.162-.151.106-.3.206-.455.3a9.081 9.081 0 01-.225.138q-.337.2-.659.366l-.209.106c-.209.1-.41.2-.6.275a.893.893 0 01-.089.04c-.154.066-.3.121-.432.172-.108.04-.209.074-.3.108-.061.022-.119.04-.172.058l-.188.058a.087.087 0 01-.024.008 2.55 2.55 0 01-.145.042c-.072.021-.12.032-.138.037h-.008s-.2-.047-.538-.162c-.124-.042-.27-.094-.431-.153a12.146 12.146 0 01-2.217-1.1 9.715 9.715 0 01-2.218-1.868 3.217 3.217 0 01-.455-.731 8.766 8.766 0 01-.14-.312.266.266 0 01-.046-.022 1.674 1.674 0 01-.042-.111 10.164 10.164 0 01-.359-1.125 4.079 4.079 0 00-.053-.2c-.013-.04-.021-.082-.032-.121s-.016-.058-.021-.09l-.1-.431-.047-.22-.047-.223c-.058-.3-.114-.609-.164-.918q-.071-.417-.127-.842a35.244 35.244 0 01-.047-.32c-.04-.323-.08-.643-.114-.961-.021-.2-.042-.394-.061-.587 0-.037-.008-.074-.01-.112-.008-.077-.016-.153-.021-.227a77.439 77.439 0 01-.113-1.412 72.225 72.225 0 01-.085-1.445c0-.085-.008-.164-.01-.235A32.377 32.377 0 010 2.429c.2.008.4.011.587.011.132 0 .26 0 .386-.005s.238-.008.355-.016h.025c.085 0 .167-.008.249-.016a8.53 8.53 0 00.529-.047q.127-.012.255-.032c.085-.013.164-.021.246-.034.053-.008.106-.016.159-.026a.2.2 0 01.037-.005c.077-.016.153-.029.228-.042.122-.022.241-.047.354-.074l.169-.04a9.69 9.69 0 001.136-.344l.228-.088a7.94 7.94 0 00.736-.333c.074-.037.145-.077.217-.114s.135-.077.2-.114.127-.077.188-.114.09-.056.132-.085A7.083 7.083 0 007.04.453a6.71 6.71 0 00.315-.286 2.1 2.1 0 00.148-.162c.01.014.04.047.094.1l.053.053c.04.04.088.088.141.138a3.846 3.846 0 00.32.266 6.276 6.276 0 00.565.4l.111.069.119.072c.064.037.132.077.2.114a8.424 8.424 0 00.725.352c.095.039.193.082.3.122s.207.08.315.116.22.077.334.112.206.064.315.094c.084.024.172.047.262.066.074.022.145.04.223.056.235.053.482.1.738.141s.513.072.786.1c.108.011.223.019.336.027.072.005.141.01.217.013.1.008.2.01.3.013.145.006.294.008.447.008.196-.005.395-.008.596-.016z" fill="none"/><path data-name="Path 4759" d="M13.377 9.034l-.931-.706.262-.347-.235-.18a3.149 3.149 0 10-.823.966l.294.223.263-.347.931.706a.2.2 0 00.24-.317z" fill="#fff"/><path data-name="Path 4760" d="M12.569 5.894a2.879 2.879 0 10-2.383 3.148 2.888 2.888 0 002.383-3.148zm-2.5 2.981a2.6 2.6 0 01-1.28-.144l1.022-1.577.982 1.516a2.624 2.624 0 01-.721.205zm1.578-.833l-1.4-2.156a.529.529 0 00-.445-.242.528.528 0 00-.445.243L7.891 8.162a2.612 2.612 0 011.461-4.466 2.7 2.7 0 01.359-.024 2.614 2.614 0 011.929 4.372z" fill="#0079ff"/></g></svg>