<svg xmlns="http://www.w3.org/2000/svg" width="15" height="15.099"><g data-name="Group 55"><g data-name="Group 44" fill="#b1b2b3"><path data-name="Path 4852" d="M11.976 5.304a3.824 3.824 0 012.463.876 2.209 2.209 0 01.2.182 1.967 1.967 0 00.2-1.876 1.933 1.933 0 00-1.842-1.214l-.015-.018z"/><path data-name="Path 4853" d="M9.18 2.545a3.877 3.877 0 012.209-.969 2.327 2.327 0 01.233-.015A1.962 1.962 0 0010.454.154a1.915 1.915 0 00-1.985.29z"/><path data-name="Path 4854" d="M5.262 2.954a3.841 3.841 0 01.879-2.4A2.276 2.276 0 016.305.37 1.975 1.975 0 004.459.191a1.929 1.929 0 00-1.211 1.766z"/><path data-name="Path 4855" d="M9.9 12.183a3.845 3.845 0 01-.877 2.335 2.577 2.577 0 01-.294.309 1.975 1.975 0 001.76.12 1.936 1.936 0 001.211-1.875z"/><path data-name="Path 4856" d="M14.408 8.492l-2.023.686a3.856 3.856 0 011.048 2.286 2.529 2.529 0 01.014.272 1.975 1.975 0 001.339-1.16 1.924 1.924 0 00-.378-2.084z"/><path data-name="Path 4857" d="M.568 6.645l2.076-.7A3.8 3.8 0 011.5 3.564a2.187 2.187 0 01-.013-.189A1.966 1.966 0 00.155 4.523a1.929 1.929 0 00.413 2.122z"/><path data-name="Path 4858" d="M5.866 12.556a3.881 3.881 0 01-2.193.955 2.614 2.614 0 01-.436.01 1.973 1.973 0 001.171 1.389 1.929 1.929 0 002.119-.4z"/><path data-name="Path 4859" d="M2.891 9.848a3.877 3.877 0 01-2.272-.876 2.532 2.532 0 01-.261-.245 1.973 1.973 0 00-.2 1.874 1.926 1.926 0 001.764 1.21z"/></g><g data-name="Group 45" fill="#6caa24"><path data-name="Path 4860" d="M5.027 9.767a3.715 3.715 0 001.824-.609 11.232 11.232 0 00.05 1.423c-1.057.979-3.444 1.465-4.49 2.1l-.024-.019a23.724 23.724 0 002.64-2.895z"/><path data-name="Path 4861" d="M9.918 5.146a3.724 3.724 0 00-1.826.609 11.04 11.04 0 00-.05-1.423c1.062-.982 3.46-1.469 4.5-2.109l.021.021a23.707 23.707 0 00-2.645 2.902z"/><path data-name="Path 4862" d="M7.368 10.746a3.708 3.708 0 00.852-1.709 10.99 10.99 0 001.061.948c0 1.454-1.416 3.564-1.7 4.775h-.022a24.223 24.223 0 00-.191-4.014z"/><path data-name="Path 4863" d="M9.111 8.043a10.907 10.907 0 001.491-.088c1.019 1.044 1.569 3.463 2.245 4.469a.143.143 0 00-.016.017 24.621 24.621 0 00-3.116-2.684 3.723 3.723 0 00-.604-1.714z"/><path data-name="Path 4864" d="M7.575 4.167a3.706 3.706 0 00-.851 1.709 10.9 10.9 0 00-1.062-.946c0-1.434 1.38-3.511 1.686-4.728h.036a24.349 24.349 0 00.191 3.965z"/><path data-name="Path 4865" d="M4.188 7.428a3.656 3.656 0 001.644.789 11.324 11.324 0 00-1.018 1.1C3.388 9.25 1.398 8.021.224 7.76v-.036a24.251 24.251 0 003.964-.296z"/><path data-name="Path 4866" d="M10.753 7.485a3.656 3.656 0 00-1.644-.789 11.4 11.4 0 001.019-1.1c1.452.071 3.488 1.34 4.653 1.571v.023a24.115 24.115 0 00-4.028.295z"/><path data-name="Path 4867" d="M5.833 6.87a10.878 10.878 0 00-1.491.088c-1-1.022-1.546-3.361-2.2-4.4l.025-.028A24.747 24.747 0 005.23 5.16a3.71 3.71 0 00.603 1.71z"/></g></g></svg>